<svg width="20" height="21" viewBox="0 0 20 21" fill="none" xmlns="http://www.w3.org/2000/svg">
<g clip-path="url(#clip0_956_589)">
<path d="M1.71777 7.93042H18.2819V20.2168H1.71777V7.93042Z" fill="#FFC73B"/>
<path d="M1.71777 7.93042H18.2819V10.3378H1.71777V7.93042Z" fill="#EFB025"/>
<path d="M0.308594 4.84415H19.6913V8.97991H0.308594V4.84415Z" fill="#FFC73B"/>
<path d="M9.99985 6.21577C9.87381 6.36225 9.75036 6.51072 9.62982 6.66102C9.18075 7.2198 8.76968 7.80544 8.39813 8.41335C7.21816 10.3418 6.43462 12.4963 6.10411 14.7511C5.60743 14.0922 5.14891 13.3793 4.73661 12.6172C4.01105 13.0905 3.30197 13.6317 2.61914 14.2407C2.96979 11.8489 3.74234 9.54998 4.88966 7.44746C5.50245 6.32395 6.22267 5.25644 7.04283 4.26096C7.13759 4.1453 7.23388 4.03131 7.33138 3.91763C7.74581 4.27454 8.15978 4.63129 8.57421 4.98804C8.99765 5.35273 9.42123 5.71726 9.84466 6.08241C9.89654 6.12635 9.94797 6.17121 9.99985 6.21577Z" fill="#FF4440"/>
<path d="M17.381 14.2407C16.6982 13.6317 15.9891 13.0905 15.2635 12.6172C14.8512 13.3793 14.3927 14.0922 13.896 14.7511C13.5655 12.4963 12.782 10.3418 11.602 8.41335C11.2305 7.80544 10.8189 7.2198 10.3703 6.66102C10.2493 6.51072 10.1259 6.36225 10 6.21577C10.0517 6.17121 10.1033 6.12681 10.155 6.08241C10.5789 5.71726 11.0025 5.35227 11.4259 4.98804C11.8404 4.63083 12.2548 4.27454 12.6688 3.91763C12.7663 4.03085 12.8626 4.1453 12.9573 4.2605C13.7775 5.25599 14.4977 6.3235 15.111 7.44746C16.2578 9.54998 17.0304 11.8489 17.381 14.2407Z" fill="#FF4440"/>
<path d="M15.111 7.44746L11.602 8.41335C11.2305 7.80543 10.8189 7.2198 10.3703 6.66102L10.155 6.0824L10 5.66508L11.4259 4.98804L12.9573 4.2605C13.7775 5.25599 14.4977 6.32349 15.111 7.44746Z" fill="#EA2F2F"/>
<path d="M9.99984 5.66508L9.84466 6.0824L9.62981 6.66102C9.18074 7.2198 8.76967 7.80543 8.39812 8.41335L4.88965 7.44746C5.50244 6.32395 6.22266 5.25644 7.04282 4.26096L8.5742 4.98804L9.99984 5.66508Z" fill="#EA2F2F"/>
<path d="M15.5998 0.980921L10 3.64039L11.0756 6.53331L17.0525 4.8881C17.8344 4.67295 18.2637 3.83402 17.9811 3.07413L17.4878 1.74768C17.2052 0.987634 16.3321 0.633171 15.5998 0.980921Z" fill="#FF4440"/>
<path d="M4.40024 0.980921L9.99994 3.64039L8.92434 6.53331L2.94745 4.8881C2.16574 4.67295 1.7362 3.83402 2.01879 3.07413L2.51211 1.74768C2.79471 0.987634 3.66782 0.633171 4.40024 0.980921Z" fill="#FF4440"/>
<path d="M10.8778 2.64612H9.12183C8.64118 2.64612 8.25146 3.03568 8.25146 3.51633V6.06776C8.25146 6.54842 8.64118 6.93813 9.12183 6.93813H10.8778C11.3586 6.93813 11.7482 6.54842 11.7482 6.06776V3.51633C11.7482 3.03568 11.3585 2.64612 10.8778 2.64612Z" fill="#FF4440"/>
<path d="M8.45703 8.97992H11.5433V20.2168H8.45703V8.97992Z" fill="#FF4440"/>
<path d="M8.45703 8.97992H11.5433V10.3378H8.45703V8.97992Z" fill="#EA2F2F"/>
<path d="M19.6914 4.53545H18.063C18.1103 4.46908 18.1532 4.39935 18.1907 4.32626C18.4061 3.90542 18.4353 3.40981 18.2706 2.96639L17.7772 1.64009C17.6127 1.19712 17.2671 0.840981 16.8293 0.663063C16.3911 0.484992 15.8947 0.499183 15.4673 0.702126L11.5619 2.55684C11.3689 2.4189 11.1329 2.33742 10.878 2.33742H9.12205C8.86722 2.33742 8.63102 2.41905 8.43799 2.55699L4.53279 0.701973C4.10539 0.499183 3.60902 0.484992 3.17079 0.663063C2.73301 0.840981 2.3874 1.19712 2.22291 1.63993L1.72944 2.96654C1.5648 3.40981 1.59394 3.90542 1.80955 4.32626C1.84693 4.39935 1.88996 4.46923 1.93726 4.53545H0.308687C0.138245 4.53545 0 4.67355 0 4.84414V7.06629C0 7.23673 0.138245 7.37497 0.308687 7.37497C0.479128 7.37497 0.617373 7.23673 0.617373 7.06629V5.15268H2.76139C2.79573 5.16473 2.83052 5.17587 2.86577 5.18563L5.45718 5.89899C4.88131 6.7814 4.37334 7.7096 3.93846 8.67137H0.617373V8.30088C0.617373 8.13044 0.479128 7.99235 0.308687 7.99235C0.138245 7.99235 0 8.13044 0 8.30088V8.98005C0 9.15049 0.138245 9.28874 0.308687 9.28874H1.40946V20.2167C1.40946 20.3873 1.54771 20.5254 1.71815 20.5254H18.2819C18.4524 20.5254 18.5906 20.3873 18.5906 20.2167V18.4244C18.5906 18.2539 18.4524 18.1157 18.2819 18.1157C18.1113 18.1157 17.9733 18.2539 17.9733 18.4244V19.9081H11.8519V9.47856C12.7262 11.1346 13.3181 12.9353 13.5905 14.7958C13.6085 14.919 13.6988 15.0192 13.8195 15.05C13.8448 15.0566 13.8705 15.0596 13.8959 15.0596C13.9913 15.0596 14.0832 15.0154 14.1424 14.9368C14.5861 14.3481 14.9987 13.7179 15.3712 13.06C15.9949 13.4848 16.6006 13.9584 17.1752 14.4711C17.2721 14.5575 17.4128 14.5741 17.5271 14.5125C17.6414 14.451 17.705 14.3245 17.6861 14.196C17.4396 12.5149 16.9802 10.8618 16.329 9.28874H17.9731V17.1896C17.9731 17.3602 18.1113 17.4983 18.2818 17.4983C18.4524 17.4983 18.5905 17.3602 18.5905 17.1896V9.28874H19.6914C19.8618 9.28874 19.9999 9.15049 19.9999 8.98005V4.84414C20.0001 4.67355 19.862 4.53545 19.6914 4.53545ZM15.732 1.25968C16.0075 1.12907 16.3145 1.12022 16.5969 1.23496C16.8789 1.34956 17.0925 1.56974 17.1986 1.85524L17.6919 3.18138C17.7981 3.46703 17.7799 3.77373 17.6411 4.04488C17.5024 4.31588 17.2642 4.50967 16.9706 4.59039L12.0571 5.94308V4.45962C13.1615 3.78335 15.9148 2.38853 16.6001 3.35579C16.6985 3.4948 16.8911 3.52791 17.0303 3.42934C17.1694 3.33077 17.2024 3.13805 17.1038 2.99904C16.5749 2.25243 15.4604 2.21611 13.791 2.89131C13.1032 3.16933 12.4683 3.50869 12.0571 3.74413V3.51632C12.0571 3.35106 12.0228 3.19359 11.9611 3.05062L15.732 1.25968ZM9.12205 2.95464H10.878C11.1878 2.95464 11.4397 3.20671 11.4397 3.51632V6.06775C11.4397 6.3775 11.1878 6.62943 10.878 6.62943H9.12205C8.81229 6.62943 8.56037 6.3775 8.56037 6.06775V3.51632C8.56037 3.20656 8.81229 2.95464 9.12205 2.95464ZM8.60325 8.67121C8.89851 8.18064 9.21986 7.70518 9.56562 7.2468H10.4342C10.7801 7.70518 11.1014 8.18064 11.3965 8.67121H8.60325ZM2.35902 4.04488C2.22016 3.77373 2.20201 3.46703 2.30805 3.18154L2.80168 1.85508C2.90757 1.56974 3.1212 1.34956 3.40318 1.23496C3.68547 1.12022 3.99263 1.12907 4.2679 1.25968L8.03897 3.05092C7.97733 3.19374 7.943 3.35106 7.943 3.51647V3.76183C7.53314 3.52593 6.88388 3.1765 6.17861 2.89131C4.5093 2.21611 3.39464 2.25243 2.86577 2.99904C2.76719 3.13805 2.80015 3.33077 2.93931 3.42934C3.07847 3.52791 3.27104 3.49495 3.36946 3.35579C4.06114 2.37938 6.85977 3.80974 7.943 4.47839V5.94308L3.02965 4.59054C2.73591 4.50967 2.49772 4.31588 2.35902 4.04488ZM8.08155 6.62149C8.2352 6.90897 8.50437 7.1258 8.82679 7.20926C7.38315 9.22343 6.38934 11.5377 5.92318 13.9703C5.59527 13.4912 5.28872 12.989 5.00811 12.4704C4.96706 12.3944 4.89626 12.3391 4.81249 12.3179C4.72887 12.2967 4.64022 12.3115 4.56804 12.3587C4.05397 12.6939 3.55058 13.0616 3.06444 13.4565C3.56508 10.8287 4.59948 8.29478 6.08279 6.07126L8.08155 6.62149ZM2.02683 9.28874H3.67113C3.01988 10.8618 2.56044 12.5148 2.31385 14.196C2.29508 14.3245 2.35856 14.451 2.47285 14.5125C2.58729 14.5739 2.72783 14.5575 2.82472 14.4711C3.39937 13.9584 4.00499 13.4848 4.62893 13.06C5.00139 13.7179 5.41384 14.348 5.85772 14.9368C5.91693 15.0154 6.00878 15.0598 6.10415 15.0598C6.12963 15.0598 6.15527 15.0566 6.1806 15.05C6.3013 15.0192 6.39148 14.919 6.40948 14.7958C6.682 12.9353 7.2739 11.1344 8.14808 9.47841V19.9081H2.02683V9.28874ZM8.76545 19.9081V9.28874H11.2346V19.9081H8.76545ZM15.432 12.3587C15.3599 12.3115 15.2711 12.2969 15.1876 12.3181C15.104 12.3393 15.033 12.3945 14.992 12.4704C14.7114 12.989 14.4048 13.4913 14.0769 13.9703C13.6107 11.5376 12.6169 9.22343 11.1731 7.20942C11.4956 7.1261 11.7649 6.90912 11.9185 6.62149L13.9178 6.07111C15.4008 8.29508 16.4352 10.829 16.9358 13.4565C16.4495 13.0616 15.9461 12.6939 15.432 12.3587ZM19.3827 8.67137H16.0618C15.6269 7.7096 15.1189 6.7814 14.5432 5.89899L17.1343 5.18563C17.1696 5.17587 17.2044 5.16473 17.2387 5.15268H19.3827V8.67137Z" fill="black"/>
</g>
<defs>
<clipPath id="clip0_956_589">
<rect width="20" height="20" fill="white" transform="translate(0 0.5)"/>
</clipPath>
</defs>
</svg>
