<svg width="15" height="19" viewBox="0 0 15 19" fill="none" xmlns="http://www.w3.org/2000/svg">
<path d="M7.5 4.5C6.88193 4.5 6.27775 4.68328 5.76384 5.02666C5.24994 5.37004 4.8494 5.8581 4.61288 6.42911C4.37635 7.00013 4.31447 7.62847 4.43505 8.23466C4.55562 8.84085 4.85325 9.39767 5.29029 9.83471C5.72733 10.2717 6.28415 10.5694 6.89034 10.69C7.49653 10.8105 8.12487 10.7486 8.69589 10.5121C9.2669 10.2756 9.75496 9.87506 10.0983 9.36116C10.4417 8.84725 10.625 8.24307 10.625 7.625C10.625 6.7962 10.2958 6.00134 9.70971 5.41529C9.12366 4.82924 8.3288 4.5 7.5 4.5ZM7.5 9.5C7.12916 9.5 6.76665 9.39003 6.45831 9.18401C6.14996 8.97798 5.90964 8.68514 5.76773 8.34253C5.62581 7.99992 5.58868 7.62292 5.66103 7.25921C5.73337 6.89549 5.91195 6.5614 6.17417 6.29917C6.4364 6.03695 6.77049 5.85837 7.13421 5.78603C7.49792 5.71368 7.87492 5.75081 8.21753 5.89273C8.56014 6.03464 8.85298 6.27496 9.05901 6.58331C9.26503 6.89165 9.375 7.25416 9.375 7.625C9.375 8.12228 9.17746 8.59919 8.82583 8.95083C8.47419 9.30246 7.99728 9.5 7.5 9.5ZM7.5 0.75C5.67727 0.752068 3.92979 1.47706 2.64092 2.76592C1.35206 4.05479 0.627068 5.80227 0.625 7.625C0.625 10.0781 1.75859 12.6781 3.90625 15.1445C4.87127 16.259 5.95739 17.2626 7.14453 18.1367C7.24962 18.2103 7.37482 18.2498 7.50312 18.2498C7.63143 18.2498 7.75663 18.2103 7.86172 18.1367C9.04668 17.2623 10.1307 16.2587 11.0938 15.1445C13.2383 12.6781 14.375 10.0781 14.375 7.625C14.3729 5.80227 13.6479 4.05479 12.3591 2.76592C11.0702 1.47706 9.32273 0.752068 7.5 0.75ZM7.5 16.8438C6.20859 15.8281 1.875 12.0977 1.875 7.625C1.875 6.13316 2.46763 4.70242 3.52252 3.64752C4.57742 2.59263 6.00816 2 7.5 2C8.99184 2 10.4226 2.59263 11.4775 3.64752C12.5324 4.70242 13.125 6.13316 13.125 7.625C13.125 12.0961 8.79141 15.8281 7.5 16.8438Z" fill="white"/>
</svg>
